{
 "cells": [
  {
   "cell_type": "code",
   "execution_count": 3,
   "metadata": {},
   "outputs": [
    {
     "name": "stdout",
     "output_type": "stream",
     "text": [
      "Moviepy - Building video 2024-05-04_01-41-53/video_only.mp4.\n",
      "Moviepy - Writing video 2024-05-04_01-41-53/video_only.mp4\n",
      "\n"
     ]
    },
    {
     "name": "stderr",
     "output_type": "stream",
     "text": [
      "ffmpeg version 7.0 Copyright (c) 2000-2024 the FFmpeg developers\n",
      "  built with Apple clang version 15.0.0 (clang-1500.3.9.4)\n",
      "  configuration: --prefix=/opt/homebrew/Cellar/ffmpeg/7.0 --enable-shared --enable-pthreads --enable-version3 --cc=clang --host-cflags= --host-ldflags='-Wl,-ld_classic' --enable-ffplay --enable-gnutls --enable-gpl --enable-libaom --enable-libaribb24 --enable-libbluray --enable-libdav1d --enable-libharfbuzz --enable-libjxl --enable-libmp3lame --enable-libopus --enable-librav1e --enable-librist --enable-librubberband --enable-libsnappy --enable-libsrt --enable-libssh --enable-libsvtav1 --enable-libtesseract --enable-libtheora --enable-libvidstab --enable-libvmaf --enable-libvorbis --enable-libvpx --enable-libwebp --enable-libx264 --enable-libx265 --enable-libxml2 --enable-libxvid --enable-lzma --enable-libfontconfig --enable-libfreetype --enable-frei0r --enable-libass --enable-libopencore-amrnb --enable-libopencore-amrwb --enable-libopenjpeg --enable-libopenvino --enable-libspeex --enable-libsoxr --enable-libzmq --enable-libzimg --disable-libjack --disable-indev=jack --enable-videotoolbox --enable-audiotoolbox --enable-neon\n",
      "  libavutil      59.  8.100 / 59.  8.100\n",
      "  libavcodec     61.  3.100 / 61.  3.100\n",
      "  libavformat    61.  1.100 / 61.  1.100\n",
      "  libavdevice    61.  1.100 / 61.  1.100\n",
      "  libavfilter    10.  1.100 / 10.  1.100\n",
      "  libswscale      8.  1.100 /  8.  1.100\n",
      "  libswresample   5.  1.100 /  5.  1.100\n",
      "  libpostproc    58.  1.100 / 58.  1.100\n",
      "[mp3 @ 0x13be35930] Estimating duration from bitrate, this may be inaccurate\n",
      "Input #0, mp3, from 'concat:2024-05-04_01-41-53/segment_0.mp3|2024-05-04_01-41-53/segment_1.mp3':\n",
      "  Duration: 00:00:11.33, start: 0.000000, bitrate: 32 kb/s\n",
      "  Stream #0:0: Audio: mp3 (mp3float), 24000 Hz, mono, fltp, 32 kb/s\n",
      "Stream mapping:\n",
      "  Stream #0:0 -> #0:0 (copy)\n",
      "Output #0, mp3, to '2024-05-04_01-41-53/final_audio.mp3':\n",
      "  Metadata:\n",
      "    TSSE            : Lavf61.1.100\n",
      "  Stream #0:0: Audio: mp3, 24000 Hz, mono, fltp, 32 kb/s\n",
      "Press [q] to stop, [?] for help\n",
      "[out#0/mp3 @ 0x13bf04560] video:0KiB audio:44KiB subtitle:0KiB other streams:0KiB global headers:0KiB muxing overhead: 0.520833%\n",
      "size=      44KiB time=00:00:11.32 bitrate=  32.2kbits/s speed=1.13e+04x    \n",
      "ffmpeg version 7.0 Copyright (c) 2000-2024 the FFmpeg developers\n",
      "  built with Apple clang version 15.0.0 (clang-1500.3.9.4)\n",
      "  configuration: --prefix=/opt/homebrew/Cellar/ffmpeg/7.0 --enable-shared --enable-pthreads --enable-version3 --cc=clang --host-cflags= --host-ldflags='-Wl,-ld_classic' --enable-ffplay --enable-gnutls --enable-gpl --enable-libaom --enable-libaribb24 --enable-libbluray --enable-libdav1d --enable-libharfbuzz --enable-libjxl --enable-libmp3lame --enable-libopus --enable-librav1e --enable-librist --enable-librubberband --enable-libsnappy --enable-libsrt --enable-libssh --enable-libsvtav1 --enable-libtesseract --enable-libtheora --enable-libvidstab --enable-libvmaf --enable-libvorbis --enable-libvpx --enable-libwebp --enable-libx264 --enable-libx265 --enable-libxml2 --enable-libxvid --enable-lzma --enable-libfontconfig --enable-libfreetype --enable-frei0r --enable-libass --enable-libopencore-amrnb --enable-libopencore-amrwb --enable-libopenjpeg --enable-libopenvino --enable-libspeex --enable-libsoxr --enable-libzmq --enable-libzimg --disable-libjack --disable-indev=jack --enable-videotoolbox --enable-audiotoolbox --enable-neon\n",
      "  libavutil      59.  8.100 / 59.  8.100\n",
      "  libavcodec     61.  3.100 / 61.  3.100\n",
      "  libavformat    61.  1.100 / 61.  1.100\n",
      "  libavdevice    61.  1.100 / 61.  1.100\n",
      "  libavfilter    10.  1.100 / 10.  1.100\n",
      "  libswscale      8.  1.100 /  8.  1.100\n",
      "  libswresample   5.  1.100 /  5.  1.100\n",
      "  libpostproc    58.  1.100 / 58.  1.100\n",
      "Input #0, mov,mp4,m4a,3gp,3g2,mj2, from '2024-05-04_01-41-53/video_only.mp4':\n",
      "  Metadata:\n",
      "    major_brand     : isom\n",
      "    minor_version   : 512\n",
      "    compatible_brands: isomiso2avc1mp41\n",
      "    encoder         : Lavf61.1.100\n",
      "  Duration: 00:00:11.00, start: 0.000000, bitrate: 38 kb/s\n",
      "  Stream #0:0[0x1](und): Video: h264 (High) (avc1 / 0x31637661), yuv420p(progressive), 1080x1920, 35 kb/s, 24 fps, 24 tbr, 12288 tbn (default)\n",
      "      Metadata:\n",
      "        handler_name    : VideoHandler\n",
      "        vendor_id       : [0][0][0][0]\n",
      "        encoder         : Lavc61.3.100 libx264\n",
      "Input #1, mp3, from '2024-05-04_01-41-53/final_audio.mp3':\n",
      "  Metadata:\n",
      "    encoder         : Lavf61.1.100\n",
      "  Duration: 00:00:11.33, start: 0.022042, bitrate: 32 kb/s\n",
      "  Stream #1:0: Audio: mp3 (mp3float), 24000 Hz, mono, fltp, 32 kb/s\n",
      "Stream mapping:\n",
      "  Stream #0:0 -> #0:0 (copy)\n",
      "  Stream #1:0 -> #0:1 (mp3 (mp3float) -> aac (native))\n",
      "Press [q] to stop, [?] for help\n"
     ]
    },
    {
     "name": "stdout",
     "output_type": "stream",
     "text": [
      "Moviepy - Done !\n",
      "Moviepy - video ready 2024-05-04_01-41-53/video_only.mp4\n",
      "Final video created at 2024-05-04_01-41-53/Boat_Chronicles:_A_Journey_Through_Maritime_History_final.mp4\n"
     ]
    },
    {
     "name": "stderr",
     "output_type": "stream",
     "text": [
      "Output #0, mp4, to '2024-05-04_01-41-53/Boat_Chronicles:_A_Journey_Through_Maritime_History_final.mp4':\n",
      "  Metadata:\n",
      "    major_brand     : isom\n",
      "    minor_version   : 512\n",
      "    compatible_brands: isomiso2avc1mp41\n",
      "    encoder         : Lavf61.1.100\n",
      "  Stream #0:0(und): Video: h264 (High) (avc1 / 0x31637661), yuv420p(progressive), 1080x1920, q=2-31, 35 kb/s, 24 fps, 24 tbr, 12288 tbn (default)\n",
      "      Metadata:\n",
      "        handler_name    : VideoHandler\n",
      "        vendor_id       : [0][0][0][0]\n",
      "        encoder         : Lavc61.3.100 libx264\n",
      "  Stream #0:1: Audio: aac (LC) (mp4a / 0x6134706D), 24000 Hz, mono, fltp, 69 kb/s\n",
      "      Metadata:\n",
      "        encoder         : Lavc61.3.100 aac\n",
      "[out#0/mp4 @ 0x127e05680] video:47KiB audio:98KiB subtitle:0KiB other streams:0KiB global headers:0KiB muxing overhead: 5.294793%\n",
      "size=     153KiB time=00:00:10.91 bitrate= 114.9kbits/s speed= 142x    \n",
      "[aac @ 0x127e0c0c0] Qavg: 3426.125\n"
     ]
    }
   ],
   "source": [
    "import json\n",
    "import os\n",
    "from moviepy.editor import TextClip, concatenate_videoclips, CompositeVideoClip\n",
    "from gtts import gTTS\n",
    "from datetime import datetime\n",
    "import subprocess\n",
    "\n",
    "# Sample structured data\n",
    "response = \"\"\"\n",
    "{\n",
    "    \"title\": \"Boat Chronicles: A Journey Through Maritime History\",\n",
    "    \"segments\": [\n",
    "        {\"start\": 0, \"duration\": 6, \"text\": \"From Rafts to Ocean Liners: Tracing the Evolution of Maritime Travel.\"},\n",
    "        {\"start\": 7, \"duration\": 5, \"text\": \"Explorers and Empires: Navigating the High Seas of Medieval Times.\"}\n",
    "    ]\n",
    "}\n",
    "\"\"\"\n",
    "\n",
    "data = json.loads(response)\n",
    "title = data['title']\n",
    "segments = data['segments']\n",
    "\n",
    "# Create output directory\n",
    "dir_name = datetime.now().strftime(\"%Y-%m-%d_%H-%M-%S\")\n",
    "os.makedirs(dir_name, exist_ok=True)\n",
    "\n",
    "def create_text_clip(segment):\n",
    "    \"\"\"Generate hacker-style green text clip.\"\"\"\n",
    "    return TextClip(segment['text'], font='Courier', fontsize=50, color='green', bg_color='black',\n",
    "                    size=(1080, 1920)).set_duration(segment['duration']).set_start(segment['start'])\n",
    "\n",
    "def generate_audio(segment, idx):\n",
    "    \"\"\"Generate audio using gTTS.\"\"\"\n",
    "    audio_path = os.path.join(dir_name, f\"segment_{idx}.mp3\")\n",
    "    tts = gTTS(text=segment['text'], lang='en')\n",
    "    tts.save(audio_path)\n",
    "    return audio_path\n",
    "\n",
    "# Generate text and audio clips\n",
    "video_clips = [create_text_clip(seg) for seg in segments]\n",
    "audio_paths = [generate_audio(seg, idx) for idx, seg in enumerate(segments)]\n",
    "\n",
    "# Concatenate video clips\n",
    "final_video_clip = concatenate_videoclips(video_clips, method=\"compose\")\n",
    "video_output_path = os.path.join(dir_name, \"video_only.mp4\")\n",
    "final_video_clip.write_videofile(video_output_path, codec=\"libx264\", fps=24)\n",
    "\n",
    "# Combine audio and video using ffmpeg\n",
    "final_audio = os.path.join(dir_name, \"final_audio.mp3\")\n",
    "subprocess.run(['ffmpeg', '-y', '-i', 'concat:' + '|'.join(audio_paths), '-acodec', 'copy', final_audio])\n",
    "\n",
    "final_video_path = os.path.join(dir_name, f\"{title.replace(' ', '_')}_final.mp4\")\n",
    "subprocess.run([\n",
    "    'ffmpeg', '-y', '-i', video_output_path, '-i', final_audio, '-c:v', 'copy', '-c:a', 'aac', '-strict', 'experimental',\n",
    "    final_video_path\n",
    "])\n",
    "\n",
    "print(f\"Final video created at {final_video_path}\")\n"
   ]
  },
  {
   "cell_type": "code",
   "execution_count": 3,
   "metadata": {},
   "outputs": [
    {
     "name": "stderr",
     "output_type": "stream",
     "text": [
      "\u001b[32m02:14:21\u001b[0m :: \u001b[1;35m  WriteGear  \u001b[0m :: \u001b[1;33m DEBUG  \u001b[0m :: \u001b[1;37mOutput Parameters: `{'-vcodec': 'libx264', '-crf': 0, '-preset': 'fast'}`\u001b[0m\n",
      "\u001b[32m02:14:21\u001b[0m :: \u001b[1;35m  WriteGear  \u001b[0m :: \u001b[1;33m DEBUG  \u001b[0m :: \u001b[1;37mCompression Mode is enabled therefore checking for valid FFmpeg executable.\u001b[0m\n",
      "\u001b[32m02:14:21\u001b[0m :: \u001b[1;35m  WriteGear  \u001b[0m :: \u001b[1;31m\u001b[2;33mWARNING \u001b[0m :: \u001b[1;37mOptional `-disable_ffmpeg_window` flag is only available on Windows OS with `logging=False`. Discarding!\u001b[0m\n",
      "\u001b[32m02:14:21\u001b[0m :: \u001b[1;35m   Helper    \u001b[0m :: \u001b[1;33m DEBUG  \u001b[0m :: \u001b[1;37mFinal FFmpeg Path: ffmpeg\u001b[0m\n",
      "\u001b[32m02:14:22\u001b[0m :: \u001b[1;35m   Helper    \u001b[0m :: \u001b[1;33m DEBUG  \u001b[0m :: \u001b[1;37mFFmpeg validity Test Passed!\u001b[0m\n",
      "\u001b[32m02:14:22\u001b[0m :: \u001b[1;35m   Helper    \u001b[0m :: \u001b[1;33m DEBUG  \u001b[0m :: \u001b[1;37mFound valid FFmpeg Version: `b'7.0'` installed on this system\u001b[0m\n",
      "\u001b[32m02:14:22\u001b[0m :: \u001b[1;35m  WriteGear  \u001b[0m :: \u001b[1;33m DEBUG  \u001b[0m :: \u001b[1;37mFound valid FFmpeg executable: `ffmpeg`.\u001b[0m\n",
      "\u001b[32m02:14:22\u001b[0m :: \u001b[1;35m  WriteGear  \u001b[0m :: \u001b[1;33m DEBUG  \u001b[0m :: \u001b[1;37mCompression Mode with FFmpeg backend is configured properly.\u001b[0m\n",
      "\u001b[32m02:14:22\u001b[0m :: \u001b[1;35m  WriteGear  \u001b[0m :: \u001b[1;33m DEBUG  \u001b[0m :: \u001b[1;37mInputFrame => Height:1920 Width:1080 Channels:3 Datatype:uint8\u001b[0m\n",
      "\u001b[32m02:14:22\u001b[0m :: \u001b[1;35m  WriteGear  \u001b[0m :: \u001b[1;33m DEBUG  \u001b[0m :: \u001b[1;37mExecuting FFmpeg command: `ffmpeg -y -f rawvideo -vcodec rawvideo -s 1080x1920 -pix_fmt bgr24 -i - -vcodec libx264 -crf 0 -preset fast /Users/p/Desktop/untitled folder 2/multiscript/output.mp4`\u001b[0m\n",
      "ffmpeg version 7.0 Copyright (c) 2000-2024 the FFmpeg developers\n",
      "  built with Apple clang version 15.0.0 (clang-1500.3.9.4)\n",
      "  configuration: --prefix=/opt/homebrew/Cellar/ffmpeg/7.0 --enable-shared --enable-pthreads --enable-version3 --cc=clang --host-cflags= --host-ldflags='-Wl,-ld_classic' --enable-ffplay --enable-gnutls --enable-gpl --enable-libaom --enable-libaribb24 --enable-libbluray --enable-libdav1d --enable-libharfbuzz --enable-libjxl --enable-libmp3lame --enable-libopus --enable-librav1e --enable-librist --enable-librubberband --enable-libsnappy --enable-libsrt --enable-libssh --enable-libsvtav1 --enable-libtesseract --enable-libtheora --enable-libvidstab --enable-libvmaf --enable-libvorbis --enable-libvpx --enable-libwebp --enable-libx264 --enable-libx265 --enable-libxml2 --enable-libxvid --enable-lzma --enable-libfontconfig --enable-libfreetype --enable-frei0r --enable-libass --enable-libopencore-amrnb --enable-libopencore-amrwb --enable-libopenjpeg --enable-libopenvino --enable-libspeex --enable-libsoxr --enable-libzmq --enable-libzimg --disable-libjack --disable-indev=jack --enable-videotoolbox --enable-audiotoolbox --enable-neon\n",
      "  libavutil      59.  8.100 / 59.  8.100\n",
      "  libavcodec     61.  3.100 / 61.  3.100\n",
      "  libavformat    61.  1.100 / 61.  1.100\n",
      "  libavdevice    61.  1.100 / 61.  1.100\n",
      "  libavfilter    10.  1.100 / 10.  1.100\n",
      "  libswscale      8.  1.100 /  8.  1.100\n",
      "  libswresample   5.  1.100 /  5.  1.100\n",
      "  libpostproc    58.  1.100 / 58.  1.100\n",
      "Input #0, rawvideo, from 'fd:':\n",
      "  Duration: N/A, start: 0.000000, bitrate: 1244160 kb/s\n",
      "  Stream #0:0: Video: rawvideo (BGR[24] / 0x18524742), bgr24, 1080x1920, 1244160 kb/s, 25 tbr, 25 tbn\n",
      "Stream mapping:\n",
      "  Stream #0:0 -> #0:0 (rawvideo (native) -> h264 (libx264))\n",
      "[libx264 @ 0x14562d4d0] using cpu capabilities: ARMv8 NEON\n",
      "[libx264 @ 0x14562d4d0] profile High 4:4:4 Predictive, level 4.0, 4:4:4, 8-bit\n",
      "[libx264 @ 0x14562d4d0] 264 - core 164 r3108 31e19f9 - H.264/MPEG-4 AVC codec - Copyleft 2003-2023 - http://www.videolan.org/x264.html - options: cabac=1 ref=2 deblock=1:0:0 analyse=0x3:0x113 me=hex subme=6 psy=0 mixed_ref=1 me_range=16 chroma_me=1 trellis=0 8x8dct=1 cqm=0 deadzone=21,11 fast_pskip=0 chroma_qp_offset=0 threads=12 lookahead_threads=2 sliced_threads=0 nr=0 decimate=1 interlaced=0 bluray_compat=0 constrained_intra=0 bframes=0 weightp=1 keyint=250 keyint_min=25 scenecut=40 intra_refresh=0 rc=cqp mbtree=0 qp=0\n",
      "Output #0, mp4, to '/Users/p/Desktop/untitled folder 2/multiscript/output.mp4':\n",
      "  Metadata:\n",
      "    encoder         : Lavf61.1.100\n",
      "  Stream #0:0: Video: h264 (avc1 / 0x31637661), yuv444p(progressive), 1080x1920, q=2-31, 25 fps, 12800 tbn\n",
      "      Metadata:\n",
      "        encoder         : Lavc61.3.100 libx264\n",
      "      Side data:\n",
      "        cpb: bitrate max/min/avg: 0/0/0 buffer size: 0 vbv_delay: N/A\n",
      "\u001b[32m02:14:25\u001b[0m :: \u001b[1;35m  WriteGear  \u001b[0m :: \u001b[1;33m DEBUG  \u001b[0m :: \u001b[1;37mTerminating WriteGear Processes.\u001b[0m\n",
      "[out#0/mp4 @ 0x1468049b0] video:51KiB audio:0KiB subtitle:0KiB other streams:0KiB global headers:0KiB muxing overhead: 3.659897%\n",
      "frame=  264 fps= 92 q=-1.0 Lsize=      53KiB time=00:00:10.56 bitrate=  40.8kbits/s speed=3.67x    \n",
      "[libx264 @ 0x14562d4d0] frame I:2     Avg QP: 0.00  size: 11268\n",
      "[libx264 @ 0x14562d4d0] frame P:262   Avg QP: 0.00  size:   110\n",
      "[libx264 @ 0x14562d4d0] mb I  I16..4: 49.8% 49.0%  1.2%\n",
      "[libx264 @ 0x14562d4d0] mb P  I16..4:  0.0%  0.0%  0.0%  P16..4:  0.0%  0.0%  0.0%  0.0%  0.0%    skip:100.0%\n",
      "[libx264 @ 0x14562d4d0] 8x8 transform intra:48.5% inter:0.0%\n",
      "[libx264 @ 0x14562d4d0] coded y,u,v intra: 1.3% 1.3% 1.3% inter: 0.0% 0.0% 0.0%\n",
      "[libx264 @ 0x14562d4d0] i16 v,h,dc,p: 99%  1%  0%  0%\n",
      "[libx264 @ 0x14562d4d0] i8 v,h,dc,ddl,ddr,vr,hd,vl,hu:  0%  0% 100%  0%  0%  0%  0%  0%  0%\n",
      "[libx264 @ 0x14562d4d0] i4 v,h,dc,ddl,ddr,vr,hd,vl,hu: 51% 24% 17%  1%  3%  1%  1%  1%  1%\n",
      "[libx264 @ 0x14562d4d0] Weighted P-Frames: Y:0.0% UV:0.0%\n",
      "[libx264 @ 0x14562d4d0] ref P L0: 82.9% 17.1%\n",
      "[libx264 @ 0x14562d4d0] kb/s:38.99\n",
      "ffmpeg version 7.0 Copyright (c) 2000-2024 the FFmpeg developers\n",
      "  built with Apple clang version 15.0.0 (clang-1500.3.9.4)\n",
      "  configuration: --prefix=/opt/homebrew/Cellar/ffmpeg/7.0 --enable-shared --enable-pthreads --enable-version3 --cc=clang --host-cflags= --host-ldflags='-Wl,-ld_classic' --enable-ffplay --enable-gnutls --enable-gpl --enable-libaom --enable-libaribb24 --enable-libbluray --enable-libdav1d --enable-libharfbuzz --enable-libjxl --enable-libmp3lame --enable-libopus --enable-librav1e --enable-librist --enable-librubberband --enable-libsnappy --enable-libsrt --enable-libssh --enable-libsvtav1 --enable-libtesseract --enable-libtheora --enable-libvidstab --enable-libvmaf --enable-libvorbis --enable-libvpx --enable-libwebp --enable-libx264 --enable-libx265 --enable-libxml2 --enable-libxvid --enable-lzma --enable-libfontconfig --enable-libfreetype --enable-frei0r --enable-libass --enable-libopencore-amrnb --enable-libopencore-amrwb --enable-libopenjpeg --enable-libopenvino --enable-libspeex --enable-libsoxr --enable-libzmq --enable-libzimg --disable-libjack --disable-indev=jack --enable-videotoolbox --enable-audiotoolbox --enable-neon\n",
      "  libavutil      59.  8.100 / 59.  8.100\n",
      "  libavcodec     61.  3.100 / 61.  3.100\n",
      "  libavformat    61.  1.100 / 61.  1.100\n",
      "  libavdevice    61.  1.100 / 61.  1.100\n",
      "  libavfilter    10.  1.100 / 10.  1.100\n",
      "  libswscale      8.  1.100 /  8.  1.100\n",
      "  libswresample   5.  1.100 /  5.  1.100\n",
      "  libpostproc    58.  1.100 / 58.  1.100\n",
      "[mp3 @ 0x14b637a40] Estimating duration from bitrate, this may be inaccurate\n",
      "Input #0, mp3, from 'concat:2024-05-04_02-14-21/segment_0.mp3|2024-05-04_02-14-21/segment_1.mp3':\n",
      "  Duration: 00:00:11.33, start: 0.000000, bitrate: 32 kb/s\n",
      "  Stream #0:0: Audio: mp3 (mp3float), 24000 Hz, mono, fltp, 32 kb/s\n",
      "Stream mapping:\n",
      "  Stream #0:0 -> #0:0 (copy)\n",
      "Output #0, mp3, to '2024-05-04_02-14-21/final_audio.mp3':\n",
      "  Metadata:\n",
      "    TSSE            : Lavf61.1.100\n",
      "  Stream #0:0: Audio: mp3, 24000 Hz, mono, fltp, 32 kb/s\n",
      "Press [q] to stop, [?] for help\n",
      "[out#0/mp3 @ 0x14b7062c0] video:0KiB audio:44KiB subtitle:0KiB other streams:0KiB global headers:0KiB muxing overhead: 0.520833%\n",
      "size=      44KiB time=00:00:11.32 bitrate=  32.2kbits/s speed=1.13e+04x    \n",
      "ffmpeg version 7.0 Copyright (c) 2000-2024 the FFmpeg developers\n",
      "  built with Apple clang version 15.0.0 (clang-1500.3.9.4)\n",
      "  configuration: --prefix=/opt/homebrew/Cellar/ffmpeg/7.0 --enable-shared --enable-pthreads --enable-version3 --cc=clang --host-cflags= --host-ldflags='-Wl,-ld_classic' --enable-ffplay --enable-gnutls --enable-gpl --enable-libaom --enable-libaribb24 --enable-libbluray --enable-libdav1d --enable-libharfbuzz --enable-libjxl --enable-libmp3lame --enable-libopus --enable-librav1e --enable-librist --enable-librubberband --enable-libsnappy --enable-libsrt --enable-libssh --enable-libsvtav1 --enable-libtesseract --enable-libtheora --enable-libvidstab --enable-libvmaf --enable-libvorbis --enable-libvpx --enable-libwebp --enable-libx264 --enable-libx265 --enable-libxml2 --enable-libxvid --enable-lzma --enable-libfontconfig --enable-libfreetype --enable-frei0r --enable-libass --enable-libopencore-amrnb --enable-libopencore-amrwb --enable-libopenjpeg --enable-libopenvino --enable-libspeex --enable-libsoxr --enable-libzmq --enable-libzimg --disable-libjack --disable-indev=jack --enable-videotoolbox --enable-audiotoolbox --enable-neon\n",
      "  libavutil      59.  8.100 / 59.  8.100\n",
      "  libavcodec     61.  3.100 / 61.  3.100\n",
      "  libavformat    61.  1.100 / 61.  1.100\n",
      "  libavdevice    61.  1.100 / 61.  1.100\n",
      "  libavfilter    10.  1.100 / 10.  1.100\n",
      "  libswscale      8.  1.100 /  8.  1.100\n",
      "  libswresample   5.  1.100 /  5.  1.100\n",
      "  libpostproc    58.  1.100 / 58.  1.100\n",
      "Input #0, mov,mp4,m4a,3gp,3g2,mj2, from 'output.mp4':\n",
      "  Metadata:\n",
      "    major_brand     : isom\n",
      "    minor_version   : 512\n",
      "    compatible_brands: isomiso2avc1mp41\n",
      "    encoder         : Lavf61.1.100\n",
      "  Duration: 00:00:10.56, start: 0.000000, bitrate: 40 kb/s\n",
      "  Stream #0:0[0x1](und): Video: h264 (High 4:4:4 Predictive) (avc1 / 0x31637661), yuv444p(progressive), 1080x1920, 39 kb/s, 25 fps, 25 tbr, 12800 tbn (default)\n",
      "      Metadata:\n",
      "        handler_name    : VideoHandler\n",
      "        vendor_id       : [0][0][0][0]\n",
      "        encoder         : Lavc61.3.100 libx264\n",
      "Input #1, mp3, from '2024-05-04_02-14-21/final_audio.mp3':\n",
      "  Metadata:\n",
      "    encoder         : Lavf61.1.100\n",
      "  Duration: 00:00:11.33, start: 0.022042, bitrate: 32 kb/s\n",
      "  Stream #1:0: Audio: mp3 (mp3float), 24000 Hz, mono, fltp, 32 kb/s\n",
      "Stream mapping:\n",
      "  Stream #0:0 -> #0:0 (copy)\n",
      "  Stream #1:0 -> #0:1 (mp3 (mp3float) -> aac (native))\n",
      "Press [q] to stop, [?] for help\n",
      "Output #0, mp4, to 'final_output.mp4':\n",
      "  Metadata:\n",
      "    major_brand     : isom\n",
      "    minor_version   : 512\n",
      "    compatible_brands: isomiso2avc1mp41\n",
      "    encoder         : Lavf61.1.100\n",
      "  Stream #0:0(und): Video: h264 (High 4:4:4 Predictive) (avc1 / 0x31637661), yuv444p(progressive), 1080x1920, q=2-31, 39 kb/s, 25 fps, 25 tbr, 12800 tbn (default)\n",
      "      Metadata:\n",
      "        handler_name    : VideoHandler\n",
      "        vendor_id       : [0][0][0][0]\n",
      "        encoder         : Lavc61.3.100 libx264\n",
      "  Stream #0:1: Audio: aac (LC) (mp4a / 0x6134706D), 24000 Hz, mono, fltp, 69 kb/s\n",
      "      Metadata:\n",
      "        encoder         : Lavc61.3.100 aac\n"
     ]
    },
    {
     "name": "stdout",
     "output_type": "stream",
     "text": [
      "Final video with audio is ready.\n"
     ]
    },
    {
     "name": "stderr",
     "output_type": "stream",
     "text": [
      "[out#0/mp4 @ 0x1250063d0] video:51KiB audio:100KiB subtitle:0KiB other streams:0KiB global headers:0KiB muxing overhead: 3.839658%\n",
      "size=     156KiB time=00:00:10.56 bitrate= 121.1kbits/s speed= 135x    \n",
      "[aac @ 0x12500cdd0] Qavg: 4056.836\n"
     ]
    }
   ],
   "source": [
    "import json\n",
    "import os\n",
    "from vidgear.gears import WriteGear\n",
    "import cv2\n",
    "from gtts import gTTS\n",
    "from datetime import datetime\n",
    "import numpy as np  # Import NumPy here\n",
    "\n",
    "# Sample structured data\n",
    "response = \"\"\"\n",
    "{\n",
    "    \"title\": \"Boat Chronicles: A Journey Through Maritime History\",\n",
    "    \"segments\": [\n",
    "        {\"start\": 0, \"duration\": 6, \"text\": \"From Rafts to Ocean Liners: Tracing the Evolution of Maritime Travel.\"},\n",
    "        {\"start\": 7, \"duration\": 5, \"text\": \"Explorers and Empires: Navigating the High Seas of Medieval Times.\"}\n",
    "    ]\n",
    "}\n",
    "\"\"\"\n",
    "\n",
    "data = json.loads(response)\n",
    "segments = data['segments']\n",
    "\n",
    "# Create output directory\n",
    "dir_name = datetime.now().strftime(\"%Y-%m-%d_%H-%M-%S\")\n",
    "os.makedirs(dir_name, exist_ok=True)\n",
    "\n",
    "# Configuration for the output video\n",
    "output_params = {\"-vcodec\": \"libx264\", \"-crf\": 0, \"-preset\": \"fast\"}\n",
    "writer = WriteGear(output='output.mp4', compression_mode=True, logging=True, **output_params)\n",
    "\n",
    "# Process each segment\n",
    "for idx, segment in enumerate(segments):\n",
    "    # Text-to-Speech for the segment\n",
    "    tts = gTTS(text=segment['text'], lang='en')\n",
    "    audio_path = os.path.join(dir_name, f\"segment_{idx}.mp3\")\n",
    "    tts.save(audio_path)\n",
    "\n",
    "    # Create a frame with text\n",
    "    height, width = 1920, 1080\n",
    "    blank_image = 255 * np.ones(shape=[height, width, 3], dtype=np.uint8)\n",
    "    text = segment['text']\n",
    "    font = cv2.FONT_HERSHEY_SIMPLEX\n",
    "    cv2.putText(blank_image, text, (50, height // 2), font, 1, (0, 255, 0), 2)\n",
    "\n",
    "    # Write frame to video with the duration of the segment\n",
    "    for _ in range(int(segment['duration'] * 24)):  # Assuming 24 FPS\n",
    "        writer.write(blank_image)\n",
    "\n",
    "# Finalize video file\n",
    "writer.close()\n",
    "\n",
    "# Combine audio files into one and sync with video\n",
    "final_audio_path = os.path.join(dir_name, \"final_audio.mp3\")\n",
    "os.system(f\"ffmpeg -y -i 'concat:{'|'.join([os.path.join(dir_name, f'segment_{i}.mp3') for i in range(len(segments))])}' -acodec copy {final_audio_path}\")\n",
    "os.system(f\"ffmpeg -y -i output.mp4 -i {final_audio_path} -c:v copy -c:a aac -strict experimental final_output.mp4\")\n",
    "\n",
    "print(\"Final video with audio is ready.\")\n"
   ]
  }
 ],
 "metadata": {
  "kernelspec": {
   "display_name": "Python 3",
   "language": "python",
   "name": "python3"
  },
  "language_info": {
   "codemirror_mode": {
    "name": "ipython",
    "version": 3
   },
   "file_extension": ".py",
   "mimetype": "text/x-python",
   "name": "python",
   "nbconvert_exporter": "python",
   "pygments_lexer": "ipython3",
   "version": "3.11.3"
  }
 },
 "nbformat": 4,
 "nbformat_minor": 2
}
